<?xml version="1.0" standalone="yes"?>

<svg version="1.1" viewBox="0.0 0.0 197.20997375328085 287.4409448818898" fill="none" stroke="none" stroke-linecap="square" stroke-miterlimit="10" xmlns="http://www.w3.org/2000/svg" xmlns:xlink="http://www.w3.org/1999/xlink"><clipPath id="p.0"><path d="m0 0l197.20998 0l0 287.44095l-197.20998 0l0 -287.44095z" clip-rule="nonzero"></path></clipPath><g clip-path="url(#p.0)"><path fill="#000000" fill-opacity="0.0" d="m0 0l197.20998 0l0 287.44095l-197.20998 0z" fill-rule="evenodd"></path><path fill="#000000" fill-opacity="0.0" d="m187.7543 7.999137c-21.565735 5.7193747 -99.60748 15.014325 -129.39442 34.316246c-29.786938 19.301926 -45.395287 48.849167 -49.32721 81.49529c-3.931923 32.646126 3.0975323 88.88378 25.735672 114.38145c22.638142 25.497665 91.74431 32.170425 110.09317 38.604507" fill-rule="evenodd"></path><path stroke="#000000" stroke-width="3.0" stroke-linejoin="round" stroke-linecap="butt" d="m187.7543 7.999137c-21.565735 5.7193747 -99.607475 15.014325 -129.39442 34.316246c-29.786938 19.301922 -45.395287 48.849174 -49.32721 81.49529c-3.931923 32.646126 3.0975332 88.88378 25.735676 114.38143c11.319065 12.74884 34.255142 20.791443 56.655067 26.45111c11.199951 2.829834 22.26587 5.0639343 31.678604 6.992676c1.1765976 0.24111938 2.3273468 0.4774475 3.449318 0.7095642l0.82608795 0.17251587" fill-rule="evenodd"></path><path fill="#000000" stroke="#000000" stroke-width="3.0" stroke-linecap="butt" d="m126.19957 277.33115l14.401947 -1.5769958l-12.046219 -8.049347z" fill-rule="evenodd"></path></g></svg>

