<?xml version="1.0" standalone="yes"?>

<svg version="1.1" viewBox="0.0 0.0 226.9763779527559 328.37270341207346" fill="none" stroke="none" stroke-linecap="square" stroke-miterlimit="10" xmlns="http://www.w3.org/2000/svg" xmlns:xlink="http://www.w3.org/1999/xlink"><clipPath id="p.0"><path d="m0 0l226.97638 0l0 328.3727l-226.97638 0l0 -328.3727z" clip-rule="nonzero"></path></clipPath><g clip-path="url(#p.0)"><path fill="#000000" fill-opacity="0.0" d="m0 0l226.97638 0l0 328.3727l-226.97638 0z" fill-rule="evenodd"></path><path fill="#000000" fill-opacity="0.0" d="m218.20448 8.0c-25.203857 6.861767 -116.33465 18.3084 -151.22311 41.170605c-34.888447 22.862202 -54.009182 58.98863 -58.10761 96.002625c-4.098425 37.013992 6.070429 97.31583 33.51706 126.081375c27.446636 28.765503 109.30228 38.759827 131.16273 46.51181" fill-rule="evenodd"></path><path stroke="#000000" stroke-width="3.0" stroke-linejoin="round" stroke-linecap="butt" d="m218.20448 8.0c-25.203842 6.861768 -116.33465 18.3084 -151.2231 41.170605c-34.88846 22.862202 -54.00919 58.98863 -58.107616 96.002625c-4.098426 37.014008 6.070429 97.31584 33.51706 126.081375c13.723316 14.382721 41.048885 24.072693 67.67618 31.135986c13.313652 3.5316162 26.45272 6.4065857 37.629677 8.883118c2.7942352 0.6191406 5.4658356 1.2133789 7.9868774 1.7867432l0.4674225 0.10699463" fill-rule="evenodd"></path><path fill="#000000" stroke="#000000" stroke-width="3.0" stroke-linecap="butt" d="m154.88495 317.9582l14.428467 -1.3123169l-11.896393 -8.269165z" fill-rule="evenodd"></path></g></svg>

